<?xml version="1.0" standalone="no"?>
<!DOCTYPE svg PUBLIC "-//W3C//DTD SVG 20010904//EN"
 "http://www.w3.org/TR/2001/REC-SVG-20010904/DTD/svg10.dtd">
<svg version="1.0" xmlns="http://www.w3.org/2000/svg"
 width="700.000000pt" height="700.000000pt" viewBox="0 0 700.000000 700.000000"
 preserveAspectRatio="xMidYMid meet">
<g transform="translate(0.000000,700.000000) scale(0.100000,-0.100000)"
fill="#000000" stroke="none">
<path d="M989 6996 c-2 -2 -24 -6 -49 -10 -220 -28 -445 -141 -611 -306 -166
-164 -273 -370 -313 -600 -14 -74 -15 -406 -13 -2610 2 -1389 6 -2541 11
-2560 4 -19 19 -71 32 -116 117 -406 461 -709 884 -779 72 -12 473 -14 2580
-14 2386 0 2499 1 2590 19 299 58 546 222 715 475 69 103 131 241 151 336 34
164 33 96 31 2689 -2 1389 -6 2540 -10 2559 -15 79 -61 221 -89 281 -145 309
-460 560 -773 616 -22 3 -49 9 -60 13 -21 6 -5069 14 -5076 7z"/>
</g>
</svg>
