<svg xmlns="http://www.w3.org/2000/svg" viewBox="0 0 186.97 186.97">
  <g transform="translate(-12.736 -11.387)">
    <rect width="186.974" height="186.974" rx="29" style="fill: rgb(100, 108, 255);" x="12.736" y="11.387"></rect>
  </g>
  <path
    d="M 120.573 82.383 L 120.472 82.231 L 117.029 78.644 C 116.826 78.34 116.96 77.896 117.331 77.784 C 117.853 77.625 118.35 77.344 118.777 76.94 C 120.212 75.571 120.276 73.318 118.906 71.95 C 117.599 70.518 115.348 70.482 113.915 71.855 C 113.491 72.261 113.188 72.745 113.008 73.26 C 112.878 73.626 112.429 73.739 112.136 73.523 L 108.705 69.923 L 108.556 69.815 C 108.34 69.608 107.993 69.61 107.769 69.826 L 103.791 73.643 C 103.544 73.659 103.301 73.522 103.225 73.258 C 102.887 72.089 101.914 71.08 100.265 70.761 C 100.096 70.728 99.916 70.726 99.745 70.756 C 96.368 71.351 95.498 74.862 97.313 76.768 C 97.697 77.171 98.16 77.456 98.656 77.624 C 98.923 77.714 99.042 77.986 98.994 78.242 L 94.993 82.081 C 94.76 82.304 94.749 82.664 94.964 82.887 L 98.582 86.66 L 98.647 86.709 L 98.668 86.732 C 98.975 87.054 99.512 86.883 99.624 86.442 C 99.956 85.167 101.01 84.029 102.769 83.683 C 103.098 83.659 103.43 83.68 103.751 83.748 C 104.492 83.95 105.08 84.304 105.518 84.75 C 105.942 85.207 106.27 85.81 106.438 86.56 C 106.492 86.883 106.5 87.214 106.461 87.544 C 106.034 89.285 104.85 90.287 103.562 90.56 C 103.117 90.654 102.922 91.182 103.23 91.502 L 103.252 91.525 L 103.299 91.593 L 106.903 95.376 C 107.117 95.601 107.479 95.605 107.711 95.384 L 111.725 91.556 C 111.983 91.521 112.249 91.653 112.328 91.924 C 112.475 92.429 112.738 92.903 113.124 93.305 C 114.946 95.204 118.491 94.493 119.237 91.145 C 119.275 90.975 119.282 90.795 119.255 90.626 C 119.011 88.964 118.046 87.945 116.895 87.556 C 116.636 87.468 116.506 87.218 116.536 86.974 L 120.527 83.17 C 120.752 82.956 120.768 82.61 120.573 82.383"
    style="fill-opacity: 1; fill-rule: nonzero; stroke: none; fill: rgb(255, 255, 255);"></path>
  <path
    d="M 102.291 117.455 L 102.321 117.455 L 102.404 117.467 L 107.629 117.489 C 107.94 117.491 108.192 117.231 108.194 116.912 L 108.216 111.365 C 108.369 111.155 108.648 111.054 108.899 111.186 C 109.363 111.429 109.888 111.568 110.445 111.568 C 113.077 111.571 115.02 108.522 113.123 105.663 C 113.027 105.519 112.902 105.389 112.761 105.29 C 111.393 104.315 109.992 104.306 108.913 104.866 C 108.669 104.992 108.401 104.91 108.245 104.72 L 108.267 99.208 C 108.269 98.898 108.031 98.645 107.732 98.631 L 107.551 98.596 L 102.58 98.593 C 102.22 98.529 101.992 98.126 102.17 97.78 C 102.416 97.294 102.558 96.741 102.56 96.154 C 102.569 94.17 100.989 92.563 99.053 92.604 C 97.115 92.552 95.528 94.152 95.526 96.136 C 95.528 96.724 95.664 97.277 95.912 97.765 C 96.087 98.111 95.856 98.515 95.496 98.577 L 90.522 98.554 L 90.343 98.587 C 90.129 98.596 89.95 98.731 89.862 98.919 C 89.892 99.006 89.911 99.099 89.911 99.196 L 89.902 104.888 L 89.59 104.826 C 89.448 104.888 89.287 104.898 89.132 104.817 L 89.036 104.775 C 88.868 104.776 88.696 104.788 88.518 104.814 L 88.473 104.82 L 88.427 104.812 C 88.23 104.776 88.055 104.744 87.887 104.744 C 86.292 104.747 84.971 105.979 84.772 107.579 C 84.754 107.716 84.742 107.855 84.742 107.999 C 84.742 108.573 84.896 109.187 85.227 109.808 C 85.299 109.942 85.37 110.078 85.459 110.214 C 85.536 110.329 85.637 110.433 85.75 110.512 C 86.482 111.03 87.201 111.239 87.87 111.24 C 88.049 111.239 88.224 111.223 88.397 111.196 L 88.442 111.187 L 88.487 111.195 C 88.633 111.219 88.746 111.242 88.851 111.254 C 88.939 111.217 89.029 111.181 89.114 111.135 C 89.295 111.042 89.491 111.072 89.641 111.174 L 89.89 111.123 L 89.881 116.902 C 89.881 116.976 89.868 117.048 89.852 117.118 C 89.943 117.309 90.129 117.445 90.352 117.445 L 95.578 117.449 L 95.658 117.438 L 95.69 117.438 C 96.136 117.439 96.383 116.935 96.142 116.546 C 95.453 115.426 95.364 113.878 96.334 112.369 C 96.544 112.113 96.789 111.891 97.061 111.705 C 97.719 111.311 98.382 111.133 99.007 111.125 C 99.632 111.135 100.292 111.319 100.949 111.714 C 101.22 111.902 101.464 112.125 101.674 112.382 C 102.636 113.896 102.536 115.443 101.841 116.562 C 101.602 116.948 101.846 117.455 102.291 117.455"
    style="fill-opacity: 1; fill-rule: nonzero; stroke: none; fill: rgb(255, 255, 255);"></path>
  <path
    d="M 83.794 97.871 L 83.783 97.901 L 83.778 97.912 L 83.747 98.031 C 83.746 98.156 83.848 98.284 83.974 98.31 L 88.909 98.301 C 88.98 98.301 89.039 98.321 89.102 98.336 L 89.102 98.335 C 89.275 98.342 89.434 98.403 89.564 98.501 L 89.595 98.345 L 89.618 92.799 C 89.771 92.589 90.05 92.489 90.3 92.619 C 90.764 92.862 91.289 93.001 91.846 93.001 C 94.479 93.004 96.421 89.955 94.524 87.096 C 94.427 86.953 94.304 86.823 94.163 86.723 C 92.795 85.748 91.393 85.739 90.313 86.3 C 90.071 86.425 89.802 86.344 89.646 86.153 L 89.67 80.641 C 89.67 80.332 89.432 80.078 89.134 80.064 L 88.953 80.029 L 83.981 80.027 C 83.621 79.963 83.393 79.559 83.57 79.214 C 83.818 78.727 83.959 78.174 83.962 77.587 C 83.971 75.602 82.392 73.996 80.454 74.037 C 78.517 73.986 76.93 75.585 76.927 77.57 C 76.928 78.157 77.066 78.71 77.313 79.198 C 77.487 79.544 77.257 79.948 76.898 80.008 L 71.924 79.987 L 71.745 80.02 C 71.445 80.032 71.207 80.285 71.207 80.596 L 71.202 86.108 C 71.044 86.297 70.775 86.378 70.534 86.25 C 69.457 85.685 68.055 85.687 66.682 86.655 C 66.541 86.753 66.416 86.883 66.318 87.027 C 64.406 89.875 66.336 92.933 68.968 92.944 C 69.525 92.946 70.051 92.811 70.515 92.569 C 70.767 92.439 71.047 92.542 71.196 92.754 L 71.191 98.3 C 71.191 98.37 71.207 98.435 71.23 98.496 C 71.359 98.401 71.517 98.342 71.689 98.335 L 71.689 98.336 C 71.75 98.321 71.81 98.301 71.881 98.301 L 76.817 98.31 C 76.943 98.284 77.045 98.156 77.042 98.033 L 77.013 97.912 L 77.008 97.898 L 77.001 97.885 L 76.995 97.868 C 76.744 97.358 76.598 96.784 76.594 96.176 L 76.593 96.176 L 76.593 96.159 L 76.593 96.156 L 76.593 96.147 C 76.593 95.762 76.665 95.404 76.762 95.068 C 77.215 93.495 78.62 92.329 80.313 92.329 L 80.403 92.33 L 80.478 92.329 C 82.169 92.329 83.576 93.495 84.029 95.068 C 84.125 95.404 84.196 95.762 84.196 96.148 L 84.196 96.156 C 84.196 96.774 84.048 97.356 83.794 97.871"
    style="fill-opacity: 1; fill-rule: nonzero; stroke: none; fill: rgb(255, 255, 255);"></path>
  <path
    d="M 85.509 105.061 C 86.158 104.481 87.006 104.126 87.936 104.123 L 87.938 104.402 L 87.938 104.123 C 88.163 104.123 88.362 104.163 88.545 104.195 C 88.733 104.17 88.92 104.153 89.107 104.152 C 89.199 104.152 89.292 104.156 89.385 104.165 L 89.391 99.146 C 89.391 98.987 89.278 98.873 89.146 98.858 L 89.128 98.853 L 89.085 98.852 L 89.044 98.837 L 88.961 98.82 L 83.963 98.829 L 83.94 98.824 C 83.549 98.754 83.28 98.431 83.243 98.055 L 83.229 97.98 C 83.229 97.862 83.257 97.741 83.313 97.625 L 83.31 97.625 L 83.322 97.596 L 83.328 97.587 C 83.55 97.139 83.678 96.639 83.678 96.104 L 83.678 96.097 C 83.678 95.783 83.62 95.479 83.533 95.175 C 83.142 93.828 81.949 92.847 80.528 92.847 L 80.456 92.848 L 80.448 92.848 L 80.44 92.848 L 80.364 92.847 C 79.696 92.847 79.083 93.069 78.575 93.439 C 78.003 93.857 77.567 94.461 77.361 95.175 C 77.311 95.347 77.275 95.521 77.25 95.697 C 77.23 95.828 77.214 95.959 77.214 96.094 L 77.214 96.095 L 77.214 96.104 C 77.214 96.639 77.342 97.139 77.565 97.585 L 77.572 97.597 L 77.577 97.611 L 77.584 97.628 L 77.582 97.629 C 77.634 97.742 77.663 97.863 77.663 97.981 L 77.65 98.049 C 77.616 98.428 77.346 98.754 76.954 98.824 L 76.93 98.829 L 71.933 98.82 L 71.892 98.828 L 71.849 98.837 L 71.808 98.852 L 71.765 98.853 C 71.624 98.859 71.501 98.98 71.499 99.145 L 71.509 104.759 L 71.444 104.84 C 71.287 105.027 71.057 105.146 70.802 105.146 C 70.675 105.146 70.543 105.116 70.424 105.052 C 69.999 104.832 69.522 104.707 69.013 104.707 C 68.34 104.707 67.608 104.924 66.87 105.449 C 66.759 105.527 66.655 105.631 66.58 105.746 C 66.075 106.503 65.862 107.26 65.862 107.96 C 65.862 109.761 67.275 111.211 69.004 111.214 L 69.01 111.214 C 69.517 111.214 69.997 111.09 70.422 110.868 C 70.538 110.808 70.665 110.778 70.788 110.778 C 71.067 110.778 71.313 110.923 71.467 111.135 L 71.521 111.211 L 71.53 116.849 C 71.53 117.016 71.66 117.142 71.806 117.142 L 77.012 117.133 L 77.094 117.121 L 77.115 117.121 L 77.146 117.121 C 77.23 117.119 77.283 117.09 77.33 117.042 C 77.376 116.991 77.405 116.917 77.405 116.838 L 77.356 116.664 C 76.991 116.075 76.779 115.374 76.779 114.624 C 76.779 113.837 77.013 112.997 77.535 112.181 L 77.545 112.166 L 77.555 112.154 C 77.783 111.877 78.049 111.636 78.342 111.435 L 78.349 111.43 L 78.355 111.426 C 79.053 111.005 79.766 110.811 80.442 110.798 L 80.444 110.798 L 80.451 110.798 C 81.127 110.811 81.84 111.005 82.537 111.426 L 82.543 111.429 L 82.551 111.435 C 82.844 111.636 83.11 111.877 83.337 112.154 L 83.348 112.168 L 83.357 112.181 C 83.879 112.997 84.113 113.837 84.112 114.626 C 84.112 115.374 83.902 116.075 83.536 116.666 L 83.486 116.838 C 83.486 116.917 83.516 116.991 83.562 117.042 C 83.608 117.09 83.663 117.119 83.746 117.121 L 83.796 117.121 L 83.816 117.124 L 83.879 117.133 L 89.086 117.142 C 89.232 117.142 89.363 117.016 89.363 116.849 L 89.372 111.758 C 89.255 111.773 89.134 111.784 89.007 111.784 L 89.005 111.784 C 88.79 111.782 88.62 111.735 88.478 111.712 C 88.296 111.738 88.112 111.758 87.921 111.758 C 87.16 111.758 86.35 111.516 85.559 110.98 L 85.47 110.926 C 85.303 110.805 85.154 110.654 85.037 110.478 C 84.739 110.032 84.533 109.578 84.401 109.127 C 84.36 108.987 84.33 108.847 84.303 108.708 C 84.254 108.451 84.224 108.197 84.224 107.947 C 84.224 106.796 84.72 105.764 85.509 105.061"
    style="fill-opacity: 1; fill-rule: nonzero; stroke: none; fill: rgb(255, 255, 255);"></path>
</svg>
