<?xml version="1.0" encoding="utf-8"?>
<svg viewBox="0 0 813.866 140.599" xmlns="http://www.w3.org/2000/svg">
  <defs>
    <clipPath id="clip-Logo_ADMIN_znak_biele_pozadie_mensie">
      <rect width="861" height="210"/>
    </clipPath>
    <clipPath id="clip-path">
      <path id="Path_7403" data-name="Path 7403" d="M22.989,0h94.358a22.989,22.989,0,0,1,22.989,22.989v94.358a22.989,22.989,0,0,1-22.989,22.989H22.989A22.989,22.989,0,0,1,0,117.347V22.989A22.989,22.989,0,0,1,22.989,0Z" transform="translate(-5548.313 1219)" fill="#40bf76"/>
    </clipPath>
    <linearGradient id="linear-gradient" x1="-0.028" x2="1" y2="1" gradientUnits="objectBoundingBox">
      <stop offset="0" stop-color="#bd34fe"/>
      <stop offset="1" stop-color="#646cff"/>
    </linearGradient>
  </defs>
  <g id="Logo_ADMIN_znak_biele_pozadie_mensie" data-name="Logo ADMIN znak biele pozadie mensie" clip-path="url(#clip-Logo_ADMIN_znak_biele_pozadie_mensie)" transform="matrix(1, 0, 0, 1, -17.975098, -34.832031)">
    <g id="Mask_Group_10" data-name="Mask Group 10" transform="translate(5566.288 -1184.168)" clip-path="url(#clip-path)">
      <g id="Group_2865" data-name="Group 2865" transform="translate(-5548.313 1219)">
        <g id="Group_2864" data-name="Group 2864" transform="translate(0 0)">
          <path id="Union_20" data-name="Union 20" d="M71.32,140.336v-19.4c0-3.039-1.917-6.426-4.667-6.426a3.346,3.346,0,0,0-.831.106,15.9,15.9,0,0,0-3.7,1.637,9.883,9.883,0,0,1-4.711,1.654,11.929,11.929,0,0,1,0-23.858,10.132,10.132,0,0,1,4.67,1.572,16.958,16.958,0,0,0,3.5,1.512,3.535,3.535,0,0,0,.9.119,4.35,4.35,0,0,0,3.546-2.222,8.041,8.041,0,0,0,1.294-4.263L71.4,71.137h5.459l14.121.055A5.4,5.4,0,0,1,95,72.947a1.649,1.649,0,0,1,.386,1,1.458,1.458,0,0,1-.05.369,15.365,15.365,0,0,1-1.342,3.067,12.042,12.042,0,0,0-1.812,5.639,14.011,14.011,0,0,0,28.021,0,11.778,11.778,0,0,0-1.909-5.707,14.408,14.408,0,0,1-1.447-3.221,1.3,1.3,0,0,1-.041-.318,1.468,1.468,0,0,1,.351-.894,5.466,5.466,0,0,1,3.994-1.688H140.5v64.7a4.454,4.454,0,0,1-4.449,4.449Zm-66.872,0A4.454,4.454,0,0,1,0,135.887V71.156H19.4a8.141,8.141,0,0,0,4.213-1.237,4.185,4.185,0,0,0,2.213-3.431,3.338,3.338,0,0,0-.106-.83,15.93,15.93,0,0,0-1.639-3.706,9.875,9.875,0,0,1-1.652-4.706,11.929,11.929,0,0,1,23.858,0,10.116,10.116,0,0,1-1.572,4.669,16.953,16.953,0,0,0-1.512,3.5,3.5,3.5,0,0,0-.12.9,4.35,4.35,0,0,0,2.222,3.546,8.038,8.038,0,0,0,4.263,1.294l19.631.076V91.381l0,.034c-.236,1.772-1.447,3.756-2.714,3.756a1.43,1.43,0,0,1-.366-.05,15.386,15.386,0,0,1-3.067-1.343,12.041,12.041,0,0,0-5.637-1.811,14.01,14.01,0,1,0,0,28.021,11.772,11.772,0,0,0,5.709-1.909,14.412,14.412,0,0,1,3.219-1.447,1.29,1.29,0,0,1,.316-.041c1.059,0,2.294,1.79,2.541,3.685l0,.033v20.026Zm92.769-49.5a11.925,11.925,0,0,1-2.958-7.863,6.768,6.768,0,0,1,.559-2.574c.29-.719.659-1.419,1.014-2.1.372-.708.757-1.44,1.076-2.221a10.652,10.652,0,0,0,.436-1.279,3.479,3.479,0,0,0,.119-.9,3.683,3.683,0,0,0-.817-2.274,7.516,7.516,0,0,0-5.667-2.568l-19.7-.076.076-19.462A5.4,5.4,0,0,1,73.111,45.5a1.478,1.478,0,0,1,1.368-.337,15.421,15.421,0,0,1,3.067,1.342,12.039,12.039,0,0,0,5.639,1.812,14.01,14.01,0,0,0,0-28.021,11.779,11.779,0,0,0-5.709,1.909,14.4,14.4,0,0,1-3.219,1.447,1.335,1.335,0,0,1-1.212-.309,5.467,5.467,0,0,1-1.689-3.994V0h64.7A4.453,4.453,0,0,1,140.5,4.448V69.063H121.148a7.5,7.5,0,0,0-5.639,2.493,3.8,3.8,0,0,0-.608,1.112,3.3,3.3,0,0,0-.179,1.067,3.352,3.352,0,0,0,.1.825,15.922,15.922,0,0,0,1.64,3.706,9.885,9.885,0,0,1,1.651,4.706,11.93,11.93,0,0,1-20.9,7.863ZM49.572,69.074c-2.1,0-4.406-1.444-4.406-2.758a1.426,1.426,0,0,1,.049-.366,15.419,15.419,0,0,1,1.342-3.065,12.038,12.038,0,0,0,1.812-5.639,14.011,14.011,0,0,0-28.021,0,11.781,11.781,0,0,0,1.909,5.708A14.379,14.379,0,0,1,23.7,66.174a1.264,1.264,0,0,1,.041.314c0,1.233-2.274,2.586-4.344,2.586H.1V4.448A4.453,4.453,0,0,1,4.544,0H69.275V19.4a7.5,7.5,0,0,0,2.493,5.638,3.435,3.435,0,0,0,3,.682,15.922,15.922,0,0,0,3.706-1.64,9.881,9.881,0,0,1,4.706-1.651,11.929,11.929,0,1,1,0,23.858,10.128,10.128,0,0,1-4.669-1.571,16.967,16.967,0,0,0-3.5-1.513,3.607,3.607,0,0,0-3.172.7,7.515,7.515,0,0,0-2.568,5.667L69.2,69.151Z" stroke="rgba(0,0,0,0)" stroke-miterlimit="10" stroke-width="1" fill="url(#linear-gradient)"/>
        </g>
      </g>
    </g>
    <path id="Path_7404" data-name="Path 7404" d="M36.223.89c8.633,0,18.957-3.026,25.632-13.706l-8.9-6.141A18.975,18.975,0,0,1,36.668-10.68c-11.214,0-20.559-8.01-20.559-20.915,0-12.816,9.256-20.915,20.47-20.915a19.34,19.34,0,0,1,16.376,8.277l8.9-6.141c-6.675-10.68-17-13.706-25.632-13.706C18.512-64.08,3.649-51.264,3.649-31.6S18.423.89,36.223.89Zm53.222,0c12.015,0,24.386-8.366,24.386-24.03S101.46-47.17,89.445-47.17c-12.1,0-24.386,8.366-24.386,24.03S77.341.89,89.445.89ZM76.807-23.14c0-8.277,5.963-13.261,12.638-13.261s12.549,4.984,12.549,13.261S96.12-9.879,89.445-9.879,76.807-14.863,76.807-23.14ZM150.143,0h11.926V-26.344c0-6.586,3.738-10.146,8.989-10.146,5.162,0,8.544,3.56,8.544,10.146V0h12.015V-26.878c0-14.151-7.12-20.292-16.91-20.292-7.565,0-12.638,3.471-15.308,7.743-2.848-5.34-7.832-7.743-13.528-7.743-6.5,0-10.769,2.937-13.261,6.853V-46.28H120.684V0H132.61V-26.344c0-6.586,3.738-10.146,8.989-10.146,5.073,0,8.544,3.56,8.544,10.146Zm79.922,0h11.926V-26.344c0-6.586,3.738-10.146,8.989-10.146,5.162,0,8.544,3.56,8.544,10.146V0h12.015V-26.878c0-14.151-7.12-20.292-16.91-20.292-7.565,0-12.638,3.471-15.308,7.743-2.848-5.34-7.832-7.743-13.528-7.743-6.5,0-10.769,2.937-13.261,6.853V-46.28H200.606V0h11.926V-26.344c0-6.586,3.738-10.146,8.989-10.146,5.073,0,8.544,3.56,8.544,10.146Zm72.624.89c12.015,0,24.386-8.366,24.386-24.03S314.7-47.17,302.689-47.17c-12.1,0-24.386,8.366-24.386,24.03S290.585.89,302.689.89ZM290.051-23.14c0-8.277,5.963-13.261,12.638-13.261s12.549,4.984,12.549,13.261S309.364-9.879,302.689-9.879,290.051-14.863,290.051-23.14ZM333.928,0h11.926V-25.276c0-6.764,3.738-11.214,9.879-11.214,6.23,0,9.879,4.45,9.879,11.214V0h11.926V-27.234c0-14.062-8.01-19.936-17.533-19.936-6.942,0-11.57,3.115-14.151,7.209V-46.28H333.928Zm73.425-63.19L383.056,0h13.172l4.183-11.392h26.878L431.472,0h13.172L420.258-63.19Zm-2.848,40.584,9.345-25.365L423.2-22.606ZM492.7,0V-63.19H480.778v23.14h-.267c-1.157-2.581-6.5-7.12-14.774-7.12-10.769,0-22.25,8.01-22.25,24.03S454.968.89,465.737.89c8.277,0,13.617-4.539,14.774-7.12h.267V0ZM455.235-23.14c0-8.633,6.23-13.35,12.9-13.35s12.9,4.628,12.9,13.35-6.23,13.35-12.9,13.35S455.235-14.507,455.235-23.14ZM531.241,0h11.926V-26.344c0-6.586,3.738-10.146,8.989-10.146,5.162,0,8.544,3.56,8.544,10.146V0h12.015V-26.878c0-14.151-7.12-20.292-16.91-20.292-7.565,0-12.638,3.471-15.308,7.743-2.848-5.34-7.832-7.743-13.528-7.743-6.5,0-10.769,2.937-13.261,6.853V-46.28H501.782V0h11.926V-26.344c0-6.586,3.738-10.146,8.989-10.146,5.073,0,8.544,3.56,8.544,10.146ZM581.7,0H593.63V-46.28H581.7Zm0-52.688H593.63v-10.5H581.7ZM602.708,0h11.926V-25.276c0-6.764,3.738-11.214,9.879-11.214,6.23,0,9.879,4.45,9.879,11.214V0h11.926V-27.234c0-14.062-8.01-19.936-17.533-19.936-6.942,0-11.57,3.115-14.151,7.209V-46.28H602.708Z" transform="translate(184.351 136.595)" fill="#4C4C4C"/>
  </g>
</svg>
