<svg xmlns="http://www.w3.org/2000/svg" width="100" height="100" viewBox="0 0 100 100">
  <g id="_2K" data-name="2K" transform="translate(-10480 -9321)">
    <g id="Group_2714" data-name="Group 2714" transform="translate(4751 1906)">
      <circle id="Ellipse_18" data-name="Ellipse 18" cx="50" cy="50" r="50" transform="translate(5729 7415)" opacity="0.5"/>
    </g>
    <path id="Path_7179" data-name="Path 7179" d="M-13.982,7.587a11.158,11.158,0,0,1,1.1-4.668q1-2.375,4.717-5.028A34.591,34.591,0,0,0-3.991-5.417,4.889,4.889,0,0,0-2.534-8.824a3.774,3.774,0,0,0-.835-2.506,2.942,2.942,0,0,0-2.391-1,2.916,2.916,0,0,0-2.9,1.589,7.879,7.879,0,0,0-.524,2.915H-13.72a11.461,11.461,0,0,1,1.1-4.9q1.869-3.554,6.64-3.554a8.425,8.425,0,0,1,6,2.088A7.216,7.216,0,0,1,2.249-8.66,7.473,7.473,0,0,1,.673-3.976a15.678,15.678,0,0,1-3.4,3.03L-4.594.381Q-6.35,1.625-7,2.182A5.279,5.279,0,0,0-8.086,3.476H2.282V7.587ZM6.261-16.554h4.963v9.946l9.327-9.946H27.07L17.163-6.625,27.578,7.587H21.092L13.654-2.951,11.224-.487V7.587H6.261Z" transform="translate(10522.981 9375.554)" fill="#fff"/>
  </g>
</svg>
