<svg xmlns="http://www.w3.org/2000/svg" width="100" height="100" viewBox="0 0 100 100">
  <g id="_8K" data-name="8K" transform="translate(-10680 -9321)">
    <g id="Group_2716" data-name="Group 2716" transform="translate(4951 1906)">
      <circle id="Ellipse_18" data-name="Ellipse 18" cx="50" cy="50" r="50" transform="translate(5729 7415)" opacity="0.5"/>
    </g>
    <path id="Path_7181" data-name="Path 7181" d="M-9.246.692A3.814,3.814,0,0,0-8.337,3.41a3.284,3.284,0,0,0,2.514.966A3.284,3.284,0,0,0-3.309,3.41,3.814,3.814,0,0,0-2.4.692a3.78,3.78,0,0,0-.925-2.76,3.342,3.342,0,0,0-2.5-.942,3.342,3.342,0,0,0-2.5.942A3.78,3.78,0,0,0-9.246.692ZM-14.094,1a7.31,7.31,0,0,1,.9-3.619,5.734,5.734,0,0,1,2.645-2.44A5.548,5.548,0,0,1-12.79-7.538a6.929,6.929,0,0,1-.518-2.5,5.823,5.823,0,0,1,1.953-4.414A7.769,7.769,0,0,1-5.84-16.275,7.769,7.769,0,0,1-.324-14.449a5.823,5.823,0,0,1,1.953,4.414,6.952,6.952,0,0,1-.516,2.5A4.77,4.77,0,0,1-1.123-5.221a6.6,6.6,0,0,1,2.649,2.6A7.406,7.406,0,0,1,2.415,1,6.768,6.768,0,0,1,.193,6.1a8.664,8.664,0,0,1-6.205,2.1q-3.984,0-6.033-2.1A7.043,7.043,0,0,1-14.094,1ZM-8.837-9.511A2.9,2.9,0,0,0-8.04-7.4a2.939,2.939,0,0,0,2.209.819A2.906,2.906,0,0,0-3.623-7.4a2.937,2.937,0,0,0,.78-2.113,3.009,3.009,0,0,0-.78-2.2,2.956,2.956,0,0,0-2.209-.794,2.99,2.99,0,0,0-2.209.794A2.972,2.972,0,0,0-8.837-9.511Zm15.15-7.042h4.963v9.946L20.6-16.554h6.518L17.214-6.625,27.629,7.587H21.143L13.705-2.951,11.275-.487V7.587H6.313Z" transform="translate(10723.095 9375.554)" fill="#fff"/>
  </g>
</svg>
