<svg xmlns="http://www.w3.org/2000/svg" width="100" height="100" viewBox="0 0 100 100">
  <g id="Full_HD" data-name="Full HD" transform="translate(-10280 -9321)">
    <g id="Group_2712" data-name="Group 2712" transform="translate(4551 1906)">
      <circle id="Ellipse_18" data-name="Ellipse 18" cx="50" cy="50" r="50" transform="translate(5729 7415)" opacity="0.5"/>
    </g>
    <path id="Path_7177" data-name="Path 7177" d="M-21.883-16.521H-4.669v4.242h-12.2v5.552H-6.176v4.193H-16.871V7.587h-5.012ZM-1.426,7.587v-24.14H3.585v9.2H12.97v-9.2h5.012V7.587H12.97V-3.19H3.585V7.587ZM27.727-12.361V3.394h4.659A5.031,5.031,0,0,0,37.372-.127a12.4,12.4,0,0,0,.771-4.6,11.315,11.315,0,0,0-1.156-5.658q-1.156-1.973-4.6-1.973Zm5.511-4.193a12.707,12.707,0,0,1,3.737.524,7.976,7.976,0,0,1,4.114,3.063,10.738,10.738,0,0,1,1.721,3.9,18.7,18.7,0,0,1,.459,4,16.034,16.034,0,0,1-1.934,8.156,8.728,8.728,0,0,1-8.1,4.5H22.83v-24.14Z" transform="translate(10318.883 9375.554)" fill="#fff"/>
  </g>
</svg>
