<svg xmlns="http://www.w3.org/2000/svg" width="100" height="100" viewBox="0 0 100 100">
  <g id="Low" transform="translate(-10180 -9321)">
    <g id="Group_2709" data-name="Group 2709" transform="translate(4451 1906)">
      <circle id="Ellipse_18" data-name="Ellipse 18" cx="50" cy="50" r="50" transform="translate(5729 7415)" opacity="0.5"/>
    </g>
    <path id="Path_7176" data-name="Path 7176" d="M-14.218-16.322h5.044v19.8H2.881v4.34h-17.1ZM16.9,4.215A6.477,6.477,0,0,0,18.574,4a8.316,8.316,0,0,0,1.131-.41L17.261,1.267l2.592-2.706L22.306.872a11.391,11.391,0,0,0,.8-2.063,11.878,11.878,0,0,0,.36-3.095,10.307,10.307,0,0,0-1.662-6.28,5.692,5.692,0,0,0-4.856-2.219,5.922,5.922,0,0,0-4.782,2.129q-1.785,2.129-1.785,6.371,0,4.962,2.556,7.108A5.958,5.958,0,0,0,16.9,4.215Zm11.61-8.86a16.059,16.059,0,0,1-.786,5.4,8.992,8.992,0,0,1-1.877,3.449l2.772,2.61L25.99,9.564l-2.9-2.751A12.165,12.165,0,0,1,20.8,7.947a12.314,12.314,0,0,1-3.885.543,11.121,11.121,0,0,1-7.8-2.817Q5.37,2.283,5.37-4.285,5.37-10.9,9.2-14.291a11.313,11.313,0,0,1,7.78-2.768,11.157,11.157,0,0,1,7.861,2.932Q28.513-10.737,28.513-4.645Z" transform="translate(10222.799 9374.746)" fill="#fff"/>
  </g>
</svg>
