<svg xmlns="http://www.w3.org/2000/svg" width="100" height="100" viewBox="0 0 100 100">
  <g id="QHD" transform="translate(-10380 -9321)">
    <g id="Group_2713" data-name="Group 2713" transform="translate(4651 1906)">
      <circle id="Ellipse_18" data-name="Ellipse 18" cx="50" cy="50" r="50" transform="translate(5729 7415)" opacity="0.5"/>
    </g>
    <path id="Path_7178" data-name="Path 7178" d="M-12.888,4.215A6.477,6.477,0,0,0-11.217,4a8.316,8.316,0,0,0,1.131-.41L-12.53,1.267l2.592-2.706L-7.485.872a11.391,11.391,0,0,0,.8-2.063,11.878,11.878,0,0,0,.36-3.095,10.307,10.307,0,0,0-1.662-6.28,5.692,5.692,0,0,0-4.856-2.219,5.922,5.922,0,0,0-4.782,2.129q-1.785,2.129-1.785,6.371,0,4.962,2.556,7.108A5.958,5.958,0,0,0-12.888,4.215Zm11.61-8.86A16.059,16.059,0,0,1-2.065.76,8.992,8.992,0,0,1-3.942,4.209l2.772,2.61L-3.8,9.564-6.7,6.813A12.165,12.165,0,0,1-9,7.947a12.314,12.314,0,0,1-3.885.543,11.121,11.121,0,0,1-7.8-2.817q-3.738-3.39-3.738-9.957,0-6.616,3.832-10.007a11.313,11.313,0,0,1,7.78-2.768,11.157,11.157,0,0,1,7.861,2.932Q-1.278-10.737-1.278-4.645ZM2.538,7.818v-24.14H7.549v9.2h9.385v-9.2h5.012V7.818H16.934V-2.958H7.549V7.818ZM31.691-12.129V3.626H36.35A5.031,5.031,0,0,0,41.336.1a12.4,12.4,0,0,0,.771-4.6,11.315,11.315,0,0,0-1.156-5.658q-1.156-1.973-4.6-1.973ZM37.2-16.322a12.707,12.707,0,0,1,3.737.524,7.976,7.976,0,0,1,4.114,3.063,10.738,10.738,0,0,1,1.721,3.9,18.7,18.7,0,0,1,.459,4A16.034,16.034,0,0,1,45.3,3.314a8.728,8.728,0,0,1-8.1,4.5H26.794v-24.14Z" transform="translate(10418.421 9375.059)" fill="#fff"/>
  </g>
</svg>
