<svg xmlns="http://www.w3.org/2000/svg" width="100" height="100" viewBox="0 0 100 100">
  <g id="Slot" transform="translate(-10080 -9321)">
    <g id="Group_2710" data-name="Group 2710" transform="translate(10080 9321)">
      <g id="Group_2668" data-name="Group 2668" transform="translate(0 0)">
        <circle id="Ellipse_18" data-name="Ellipse 18" cx="50" cy="50" r="50" opacity="0.5"/>
      </g>
    </g>
    <g id="Group_2711" data-name="Group 2711" transform="translate(10108.517 9349.516)">
      <g id="Layer_2" data-name="Layer 2" transform="translate(0 0)">
        <path id="Path_7172" data-name="Path 7172" d="M18.322,17H9.371A5.371,5.371,0,0,0,4,22.371v8.951a5.371,5.371,0,0,0,5.371,5.371h8.951a5.371,5.371,0,0,0,5.371-5.371V22.371A5.371,5.371,0,0,0,18.322,17Zm1.79,14.322a1.79,1.79,0,0,1-1.79,1.79H9.371a1.79,1.79,0,0,1-1.79-1.79V22.371a1.79,1.79,0,0,1,1.79-1.79h8.951a1.79,1.79,0,0,1,1.79,1.79Z" transform="translate(-4 6.273)" fill="#fff"/>
        <path id="Path_7173" data-name="Path 7173" d="M31.322,17H22.371A5.371,5.371,0,0,0,17,22.371v8.951a5.371,5.371,0,0,0,5.371,5.371h8.951a5.371,5.371,0,0,0,5.371-5.371V22.371A5.371,5.371,0,0,0,31.322,17Zm1.79,14.322a1.79,1.79,0,0,1-1.79,1.79H22.371a1.79,1.79,0,0,1-1.79-1.79V22.371a1.79,1.79,0,0,1,1.79-1.79h8.951a1.79,1.79,0,0,1,1.79,1.79Z" transform="translate(6.273 6.273)" fill="#fff"/>
        <path id="Path_7174" data-name="Path 7174" d="M18.322,4H9.371A5.371,5.371,0,0,0,4,9.371v8.951a5.371,5.371,0,0,0,5.371,5.371h8.951a5.371,5.371,0,0,0,5.371-5.371V9.371A5.371,5.371,0,0,0,18.322,4Zm1.79,14.322a1.79,1.79,0,0,1-1.79,1.79H9.371a1.79,1.79,0,0,1-1.79-1.79V9.371a1.79,1.79,0,0,1,1.79-1.79h8.951a1.79,1.79,0,0,1,1.79,1.79Z" transform="translate(-4 -4)" fill="#fff"/>
        <path id="Path_7175" data-name="Path 7175" d="M18.79,15.637h6.266V21.9a1.79,1.79,0,1,0,3.581,0V15.637H34.9a1.79,1.79,0,1,0,0-3.581H28.637V5.79a1.79,1.79,0,0,0-3.581,0v6.266H18.79a1.79,1.79,0,0,0,0,3.581Z" transform="translate(6.273 -4)" fill="#fff"/>
      </g>
    </g>
  </g>
</svg>
